<?xml version="1.0" standalone="no"?>
<!DOCTYPE svg PUBLIC "-//W3C//DTD SVG 20010904//EN"
 "http://www.w3.org/TR/2001/REC-SVG-20010904/DTD/svg10.dtd">
<svg version="1.0" xmlns="http://www.w3.org/2000/svg"
 width="512.000000pt" height="512.000000pt" viewBox="0 0 512.000000 512.000000"
 preserveAspectRatio="xMidYMid meet">

<g transform="translate(0.000000,512.000000) scale(0.100000,-0.100000)"
fill="#000000" stroke="none">
<path d="M1681 4244 c-91 -19 -202 -75 -262 -131 -43 -40 -272 -307 -357 -417
-31 -40 -29 -89 4 -115 44 -35 63 -27 144 59 84 89 138 119 259 146 139 31
321 3 445 -70 125 -73 231 -201 277 -335 18 -52 18 -60 -6 -455 -14 -220 -25
-403 -25 -406 0 -2 -20 29 -44 70 -59 101 -164 221 -266 303 -106 86 -287 177
-425 214 -91 24 -116 27 -285 27 -170 0 -193 -2 -284 -27 -54 -15 -100 -26
-101 -25 -2 2 51 67 116 146 100 120 119 148 119 177 0 24 -7 39 -26 54 -30
24 -49 26 -81 8 -24 -14 -598 -704 -675 -812 -178 -250 -247 -580 -183 -880
74 -350 300 -640 619 -795 487 -237 1055 -104 1397 327 l51 63 468 0 468 0 51
-63 c251 -316 629 -478 1019 -436 494 53 894 415 997 904 65 309 -10 651 -199
902 -99 132 -1098 1337 -1165 1406 -103 106 -268 177 -411 177 -143 0 -299
-67 -406 -174 -86 -87 -128 -159 -156 -268 -18 -73 -20 -100 -14 -225 l6 -143
-190 0 -190 0 6 143 c6 125 4 152 -14 225 -28 109 -70 181 -156 268 -141 141
-335 200 -525 158z m228 -155 c102 -23 210 -106 265 -206 30 -53 56 -147 56
-205 l0 -37 -82 82 c-93 92 -187 150 -313 193 -72 25 -94 28 -222 28 -79 1
-143 4 -143 8 0 4 24 26 53 49 119 95 236 122 386 88z m1559 -11 c51 -19 172
-102 179 -123 2 -6 -49 -10 -140 -11 -128 0 -150 -3 -222 -28 -126 -43 -220
-101 -312 -193 l-83 -82 0 37 c0 20 7 64 14 97 59 247 327 391 564 303z m206
-298 c148 -38 153 -42 437 -385 141 -170 256 -311 254 -313 -1 -1 -47 10 -101
25 -91 25 -114 27 -284 27 -169 0 -194 -3 -285 -27 -138 -37 -319 -128 -425
-214 -102 -82 -207 -202 -266 -303 -24 -41 -44 -72 -44 -70 0 3 -11 186 -25
406 -24 395 -24 403 -6 455 105 303 434 479 745 399z m-910 -542 c3 -29 6 -86
6 -125 l0 -73 -210 0 -210 0 0 73 c0 39 3 96 6 125 l7 52 197 0 197 0 7 -52z
m-1431 -269 c354 -72 642 -331 750 -674 142 -454 -64 -948 -489 -1168 -407
-210 -908 -112 -1204 236 -71 83 -152 227 -188 332 -76 225 -60 499 42 720
191 413 646 645 1089 554z m2835 1 c261 -53 485 -202 631 -419 167 -246 213
-579 119 -856 -126 -371 -460 -638 -844 -674 -493 -45 -940 275 -1055 754
-113 473 137 953 596 1145 163 67 375 87 553 50z m-1384 -92 c3 -7 7 -64 10
-125 l6 -113 -240 0 -240 0 6 113 c3 61 7 118 10 125 2 9 56 12 224 12 168 0
222 -3 224 -12z m26 -410 c0 -7 9 -152 20 -323 21 -323 31 -394 75 -516 15
-41 29 -82 32 -91 5 -17 -17 -18 -377 -18 -360 0 -382 1 -377 18 3 9 17 50 32
91 44 122 54 193 75 516 11 171 20 316 20 323 0 9 57 12 250 12 193 0 250 -3
250 -12z"/>
<path d="M1025 2780 c-290 -46 -536 -254 -630 -532 -40 -119 -47 -306 -16
-428 76 -300 305 -523 604 -587 108 -23 288 -13 392 21 131 42 219 97 320 200
78 78 98 106 143 196 63 127 84 218 84 360 -1 180 -55 335 -167 479 -100 127
-274 240 -425 275 -84 20 -229 27 -305 16z m260 -162 c28 -5 88 -28 135 -50
69 -33 100 -56 165 -122 127 -129 185 -265 185 -438 0 -118 -14 -176 -67 -287
-185 -385 -703 -470 -1007 -165 -118 118 -175 248 -183 414 -9 195 46 339 182
475 162 162 361 221 590 173z"/>
<path d="M3861 2778 c-186 -26 -377 -138 -496 -290 -112 -143 -166 -298 -167
-478 0 -141 21 -232 83 -359 44 -90 63 -116 142 -196 103 -104 191 -159 322
-201 104 -34 284 -44 392 -21 299 64 528 287 604 587 31 122 24 309 -16 428
-96 284 -344 490 -641 532 -86 12 -133 11 -223 -2z m274 -164 c110 -26 202
-79 290 -168 136 -137 191 -281 182 -476 -8 -166 -65 -296 -183 -414 -246
-247 -641 -247 -889 -1 -123 122 -185 272 -185 450 0 176 57 312 185 440 166
167 368 224 600 169z"/>
<path d="M2459 2203 c-131 -67 -166 -233 -72 -343 48 -56 103 -82 173 -82 137
0 244 124 224 259 -15 103 -120 193 -224 193 -31 0 -65 -9 -101 -27z m143
-143 c33 -25 39 -49 22 -88 -14 -34 -48 -48 -90 -38 -28 7 -55 57 -46 88 6 23
49 58 72 58 10 0 29 -9 42 -20z"/>
</g>
</svg>
