<?xml version="1.0" standalone="no"?>
<!DOCTYPE svg PUBLIC "-//W3C//DTD SVG 20010904//EN"
 "http://www.w3.org/TR/2001/REC-SVG-20010904/DTD/svg10.dtd">
<svg version="1.0" xmlns="http://www.w3.org/2000/svg"
 width="512.000000pt" height="512.000000pt" viewBox="0 0 512.000000 512.000000"
 preserveAspectRatio="xMidYMid meet">

<g transform="translate(0.000000,512.000000) scale(0.100000,-0.100000)"
fill="#000000" stroke="none">
<path d="M1490 4741 c-592 -63 -1078 -453 -1254 -1006 -58 -179 -71 -266 -70
-470 0 -199 17 -306 75 -480 41 -121 136 -302 216 -411 47 -63 331 -354 962
-987 493 -494 919 -913 946 -932 106 -74 238 -98 320 -60 27 12 305 283 884
859 463 463 896 898 960 968 222 239 338 460 403 762 32 148 31 427 -1 576
-143 667 -651 1122 -1322 1181 -337 30 -670 -60 -956 -257 l-92 -64 -96 65
c-241 163 -495 247 -790 259 -60 2 -144 1 -185 -3z m356 -336 c172 -31 341
-107 482 -216 126 -99 155 -113 232 -113 77 0 103 12 207 95 187 148 373 224
614 250 319 35 664 -84 903 -312 164 -155 287 -384 332 -616 21 -108 24 -319
5 -423 -29 -161 -98 -332 -191 -471 -28 -43 -343 -365 -954 -976 -501 -502
-915 -913 -921 -913 -11 0 -1079 1064 -1511 1507 -336 345 -399 423 -465 583
-304 728 137 1515 906 1619 86 12 253 5 361 -14z"/>
</g>
</svg>
