<?xml version="1.0" standalone="no"?>
<!DOCTYPE svg PUBLIC "-//W3C//DTD SVG 20010904//EN"
 "http://www.w3.org/TR/2001/REC-SVG-20010904/DTD/svg10.dtd">
<svg version="1.0" xmlns="http://www.w3.org/2000/svg"
 width="512.000000pt" height="512.000000pt" viewBox="0 0 512.000000 512.000000"
 preserveAspectRatio="xMidYMid meet">

<g transform="translate(0.000000,512.000000) scale(0.100000,-0.100000)"
fill="#000000" stroke="none">
<path d="M2330 5109 c-205 -19 -465 -77 -646 -144 -152 -56 -407 -185 -532
-268 -368 -247 -677 -591 -871 -969 -421 -825 -363 -1825 151 -2590 133 -199
344 -428 533 -579 474 -380 1081 -580 1685 -556 682 28 1278 294 1750 783 415
429 655 960 711 1574 30 324 -22 725 -137 1051 -74 212 -256 555 -326 614 -34
29 -68 32 -108 8 -31 -18 -50 -51 -50 -86 0 -12 34 -78 76 -147 41 -69 97
-170 123 -225 380 -793 281 -1747 -254 -2444 -380 -496 -921 -812 -1555 -908
-158 -23 -482 -23 -640 0 -602 92 -1112 374 -1492 827 -552 658 -699 1575
-382 2380 222 562 672 1032 1224 1280 618 277 1314 277 1939 1 102 -46 132
-62 293 -159 93 -56 111 -64 141 -58 81 15 110 108 52 165 -67 65 -335 210
-532 287 -352 138 -781 199 -1153 163z"/>
<path d="M4252 4365 c-65 -28 -76 -130 -19 -170 37 -26 94 -19 128 14 39 40
40 89 2 130 -35 36 -68 44 -111 26z"/>
<path d="M1733 3995 c-20 -8 -40 -29 -52 -53 -57 -113 -299 -234 -436 -218
-27 3 -71 8 -97 12 -43 6 -49 4 -78 -24 -34 -35 -41 -92 -15 -129 43 -61 242
-79 385 -34 183 56 360 183 415 296 24 49 26 58 15 90 -7 22 -24 44 -44 56
-37 22 -50 23 -93 4z"/>
<path d="M3294 3991 c-81 -49 -64 -133 50 -247 105 -105 242 -177 400 -211
130 -27 284 -2 320 52 27 40 20 92 -14 127 -29 28 -35 30 -78 24 -120 -17
-150 -18 -211 -2 -138 35 -268 119 -322 206 -19 32 -40 52 -61 59 -41 15 -48
14 -84 -8z"/>
<path d="M1638 3337 c-102 -39 -176 -106 -220 -203 -21 -45 -23 -63 -23 -229
0 -174 1 -182 27 -237 51 -110 144 -184 261 -208 151 -31 313 53 385 200 26
54 27 59 27 245 0 189 0 190 -28 243 -40 76 -100 137 -165 169 -44 22 -72 28
-141 30 -55 2 -99 -2 -123 -10z m193 -210 c58 -39 69 -74 69 -225 0 -146 -7
-171 -59 -215 -65 -54 -170 -38 -222 34 -22 31 -24 46 -27 159 -2 71 1 140 7
161 12 38 53 86 86 100 41 16 111 10 146 -14z"/>
<path d="M3263 3336 c-89 -29 -176 -107 -216 -194 -20 -43 -22 -63 -22 -237 0
-184 1 -192 26 -245 68 -144 235 -231 386 -200 117 24 210 98 261 208 24 52
27 71 30 203 5 168 -9 243 -59 321 -37 57 -74 90 -143 125 -62 32 -194 42
-263 19z m200 -211 c52 -38 67 -88 67 -221 0 -104 -3 -126 -22 -164 -45 -88
-157 -114 -229 -53 -53 45 -59 69 -59 220 0 155 10 184 72 224 42 26 131 23
171 -6z"/>
<path d="M2328 1844 c-236 -43 -481 -165 -649 -323 -62 -59 -69 -70 -69 -104
0 -46 22 -81 60 -97 44 -18 76 -5 149 59 159 140 337 228 539 267 95 18 309
18 404 0 203 -39 394 -135 553 -278 60 -54 84 -63 130 -48 40 13 65 52 65 102
0 28 -11 43 -69 99 -171 162 -414 281 -656 323 -111 20 -350 20 -457 0z"/>
</g>
</svg>
