<?xml version="1.0" standalone="no"?>
<!DOCTYPE svg PUBLIC "-//W3C//DTD SVG 20010904//EN"
 "http://www.w3.org/TR/2001/REC-SVG-20010904/DTD/svg10.dtd">
<svg version="1.0" xmlns="http://www.w3.org/2000/svg"
 width="426.000000pt" height="372.000000pt" viewBox="0 0 426.000000 372.000000"
 preserveAspectRatio="xMidYMid meet">

<g transform="translate(0.000000,372.000000) scale(0.100000,-0.100000)"
fill="#000000" stroke="none">
<path d="M318 2988 c-25 -21 -28 -46 -9 -69 16 -20 39 -25 207 -46 103 -12
191 -26 195 -30 3 -5 79 -426 168 -938 90 -511 167 -935 173 -942 7 -9 56 -13
161 -15 127 -3 152 -5 155 -18 2 -10 -10 -20 -31 -28 -63 -23 -113 -68 -142
-126 -24 -48 -27 -65 -23 -125 5 -88 42 -152 112 -196 42 -25 61 -30 125 -33
67 -2 82 1 126 25 98 55 148 164 125 269 -19 84 -82 158 -158 185 -21 7 -32
18 -32 30 0 18 18 19 670 19 596 0 670 -2 670 -15 0 -9 -19 -24 -43 -34 -125
-54 -184 -180 -146 -315 15 -53 100 -138 155 -154 218 -64 405 150 304 348
-24 47 -88 104 -134 121 -23 8 -36 19 -36 31 0 16 12 18 133 18 117 0 136 2
150 18 21 23 22 46 1 66 -14 14 -122 16 -1039 16 l-1023 0 -11 68 c-7 37 -14
75 -17 85 -5 16 50 17 1060 17 954 0 1066 2 1080 16 9 8 16 17 16 20 0 2 43
295 95 650 52 355 95 656 95 669 0 13 -6 27 -12 32 -7 4 -591 10 -1298 13
l-1284 5 -26 148 c-15 81 -32 153 -38 159 -8 8 -356 60 -453 68 -3 0 -12 -6
-21 -12z m3020 -500 c-3 -18 -43 -288 -89 -600 l-84 -568 -1040 0 -1041 0
-102 588 c-56 323 -102 593 -102 600 0 9 253 12 1231 12 l1232 0 -5 -32z
m-1850 -1694 c43 -25 65 -63 70 -118 3 -41 -1 -58 -20 -86 -61 -90 -185 -91
-245 -1 -43 64 -23 158 42 201 37 24 116 27 153 4z m1449 -4 c47 -28 66 -72
61 -137 -9 -106 -113 -164 -207 -115 -47 23 -72 61 -78 114 -6 53 12 93 57
132 40 33 118 36 167 6z"/>
<path d="M1810 2152 c-35 -36 -38 -69 -9 -106 16 -20 29 -26 58 -26 99 0 111
137 14 156 -27 5 -37 1 -63 -24z"/>
<path d="M2325 2168 c-49 -28 -59 -78 -24 -122 42 -53 139 -21 139 46 0 40
-10 57 -41 73 -33 18 -47 18 -74 3z"/>
<path d="M2020 1931 c-77 -24 -166 -96 -201 -163 -25 -50 -24 -74 5 -93 32
-21 59 -7 86 44 42 83 134 129 233 118 67 -8 121 -46 170 -120 39 -58 53 -65
88 -47 31 17 24 67 -16 127 -38 57 -101 106 -166 128 -44 16 -156 19 -199 6z"/>
</g>
</svg>
