<?xml version="1.0" standalone="no"?>
<!DOCTYPE svg PUBLIC "-//W3C//DTD SVG 20010904//EN"
 "http://www.w3.org/TR/2001/REC-SVG-20010904/DTD/svg10.dtd">
<svg version="1.0" xmlns="http://www.w3.org/2000/svg"
 width="512.000000pt" height="512.000000pt" viewBox="0 0 512.000000 512.000000"
 preserveAspectRatio="xMidYMid meet">

<g transform="translate(0.000000,512.000000) scale(0.100000,-0.100000)"
fill="#000000" stroke="none">
<path d="M1212 4780 c-210 -55 -377 -216 -436 -420 -21 -73 -397 -3331 -397
-3440 1 -232 125 -431 336 -536 136 -67 39 -64 1845 -64 1812 0 1707 -3 1850
66 56 28 95 57 155 118 124 124 175 247 175 416 0 109 -375 3367 -396 3440
-45 155 -158 294 -299 367 -150 77 -70 73 -1492 72 -1215 0 -1271 -1 -1341
-19z m2634 -315 c95 -28 174 -114 193 -209 17 -86 383 -3267 383 -3333 1 -118
-85 -235 -195 -268 -76 -22 -3258 -23 -3333 0 -93 27 -174 121 -193 220 -7 40
26 349 180 1684 104 900 191 1654 195 1676 17 110 85 191 188 227 48 16 136
17 1292 18 1062 0 1247 -2 1290 -15z"/>
<path d="M1695 4146 c-42 -18 -83 -69 -91 -112 -13 -70 3 -344 24 -425 47
-177 128 -317 256 -445 314 -314 782 -373 1168 -147 112 65 266 219 329 328
106 183 133 290 133 532 1 199 -1 208 -68 257 -39 29 -133 29 -172 0 -65 -48
-68 -60 -75 -247 -5 -134 -11 -186 -28 -237 -62 -195 -229 -361 -426 -423 -57
-18 -93 -22 -190 -22 -104 1 -130 5 -193 27 -201 72 -351 225 -414 421 -16 47
-22 103 -27 234 -7 186 -11 199 -73 246 -33 25 -113 32 -153 13z"/>
</g>
</svg>
